<svg width="341" height="341" viewBox="0 0 341 341" fill="none" xmlns="http://www.w3.org/2000/svg">
<g clip-path="url(#clip0_1_3)">
<rect width="341" height="341" rx="50" fill="#E7E7E7"/>
<mask id="path-2-outside-1_1_3" maskUnits="userSpaceOnUse" x="27" y="79" width="292" height="187" fill="black">
<rect fill="white" x="27" y="79" width="292" height="187"/>
<path d="M88.7139 260.25C78.2139 260.25 68.7972 258.5 60.4639 255C52.1305 251.333 45.5472 246.333 40.7139 240C35.8805 233.5 33.2139 226.083 32.7139 217.75H56.2139C56.8805 224.583 60.0472 230.167 65.7139 234.5C71.5472 238.833 79.1305 241 88.4639 241C97.1305 241 103.964 239.083 108.964 235.25C113.964 231.417 116.464 226.583 116.464 220.75C116.464 214.75 113.797 210.333 108.464 207.5C103.131 204.5 94.8805 201.583 83.7139 198.75C73.5472 196.083 65.2139 193.417 58.7139 190.75C52.3805 187.917 46.8805 183.833 42.2139 178.5C37.7139 173 35.4639 165.833 35.4639 157C35.4639 150 37.5472 143.583 41.7139 137.75C45.8805 131.917 51.7972 127.333 59.4639 124C67.1305 120.5 75.8805 118.75 85.7139 118.75C100.881 118.75 113.131 122.583 122.464 130.25C131.797 137.917 136.797 148.417 137.464 161.75H114.714C114.214 154.583 111.297 148.833 105.964 144.5C100.797 140.167 93.7972 138 84.9639 138C76.7972 138 70.2972 139.75 65.4639 143.25C60.6305 146.75 58.2139 151.333 58.2139 157C58.2139 161.5 59.6305 165.25 62.4639 168.25C65.4639 171.083 69.1305 173.417 73.4639 175.25C77.9639 176.917 84.1305 178.833 91.9639 181C101.797 183.667 109.797 186.333 115.964 189C122.131 191.5 127.381 195.333 131.714 200.5C136.214 205.667 138.547 212.417 138.714 220.75C138.714 228.25 136.631 235 132.464 241C128.297 247 122.381 251.75 114.714 255.25C107.214 258.583 98.5472 260.25 88.7139 260.25ZM273.829 219.25H197.829L183.829 258H159.829L222.829 84.75H249.079L311.829 258H287.829L273.829 219.25ZM267.329 200.75L235.829 112.75L204.329 200.75H267.329Z"/>
</mask>
<path d="M88.7139 260.25C78.2139 260.25 68.7972 258.5 60.4639 255C52.1305 251.333 45.5472 246.333 40.7139 240C35.8805 233.5 33.2139 226.083 32.7139 217.75H56.2139C56.8805 224.583 60.0472 230.167 65.7139 234.5C71.5472 238.833 79.1305 241 88.4639 241C97.1305 241 103.964 239.083 108.964 235.25C113.964 231.417 116.464 226.583 116.464 220.75C116.464 214.75 113.797 210.333 108.464 207.5C103.131 204.5 94.8805 201.583 83.7139 198.75C73.5472 196.083 65.2139 193.417 58.7139 190.75C52.3805 187.917 46.8805 183.833 42.2139 178.5C37.7139 173 35.4639 165.833 35.4639 157C35.4639 150 37.5472 143.583 41.7139 137.75C45.8805 131.917 51.7972 127.333 59.4639 124C67.1305 120.5 75.8805 118.75 85.7139 118.75C100.881 118.75 113.131 122.583 122.464 130.25C131.797 137.917 136.797 148.417 137.464 161.75H114.714C114.214 154.583 111.297 148.833 105.964 144.5C100.797 140.167 93.7972 138 84.9639 138C76.7972 138 70.2972 139.75 65.4639 143.25C60.6305 146.75 58.2139 151.333 58.2139 157C58.2139 161.5 59.6305 165.25 62.4639 168.25C65.4639 171.083 69.1305 173.417 73.4639 175.25C77.9639 176.917 84.1305 178.833 91.9639 181C101.797 183.667 109.797 186.333 115.964 189C122.131 191.5 127.381 195.333 131.714 200.5C136.214 205.667 138.547 212.417 138.714 220.75C138.714 228.25 136.631 235 132.464 241C128.297 247 122.381 251.75 114.714 255.25C107.214 258.583 98.5472 260.25 88.7139 260.25ZM273.829 219.25H197.829L183.829 258H159.829L222.829 84.75H249.079L311.829 258H287.829L273.829 219.25ZM267.329 200.75L235.829 112.75L204.329 200.75H267.329Z" fill="black"/>
<path d="M60.4639 255L58.4502 259.577L58.4888 259.594L58.5277 259.61L60.4639 255ZM40.7139 240L36.7016 242.984L36.7202 243.009L36.7391 243.033L40.7139 240ZM32.7139 217.75V212.75H27.4049L27.7228 218.049L32.7139 217.75ZM56.2139 217.75L61.1902 217.264L60.7498 212.75H56.2139V217.75ZM65.7139 234.5L62.6766 238.472L62.7043 238.493L62.7322 238.514L65.7139 234.5ZM108.464 207.5L106.013 211.858L106.065 211.887L106.118 211.916L108.464 207.5ZM83.7139 198.75L82.4453 203.586L82.4647 203.591L82.4842 203.596L83.7139 198.75ZM58.7139 190.75L56.672 195.314L56.7436 195.346L56.8161 195.376L58.7139 190.75ZM42.2139 178.5L38.3441 181.666L38.3965 181.73L38.451 181.793L42.2139 178.5ZM41.7139 137.75L37.6452 134.844L37.6452 134.844L41.7139 137.75ZM59.4639 124L61.4575 128.585L61.4991 128.567L61.5403 128.548L59.4639 124ZM122.464 130.25L119.29 134.114L122.464 130.25ZM137.464 161.75V166.75H142.72L142.458 161.5L137.464 161.75ZM114.714 161.75L109.726 162.098L110.051 166.75H114.714V161.75ZM105.964 144.5L102.751 148.331L102.781 148.356L102.811 148.381L105.964 144.5ZM65.4639 143.25L62.5313 139.2L62.5313 139.2L65.4639 143.25ZM62.4639 168.25L58.8288 171.683L58.9269 171.787L59.0308 171.885L62.4639 168.25ZM73.4639 175.25L71.5157 179.855L71.6205 179.899L71.7273 179.939L73.4639 175.25ZM91.9639 181L90.6309 185.819L90.6431 185.822L90.6552 185.826L91.9639 181ZM115.964 189L113.979 193.589L114.032 193.612L114.085 193.634L115.964 189ZM131.714 200.5L127.883 203.713L127.913 203.749L127.943 203.784L131.714 200.5ZM138.714 220.75H143.714V220.7L143.713 220.65L138.714 220.75ZM132.464 241L128.357 238.148L128.357 238.148L132.464 241ZM114.714 255.25L116.745 259.819L116.768 259.809L116.79 259.798L114.714 255.25ZM88.7139 255.25C78.7725 255.25 70.0294 253.594 62.4 250.39L58.5277 259.61C67.565 263.406 77.6553 265.25 88.7139 265.25V255.25ZM62.4776 250.423C54.8061 247.048 48.9399 242.537 44.6886 236.967L36.7391 243.033C42.1545 250.129 49.455 255.619 58.4502 259.577L62.4776 250.423ZM44.7262 237.016C40.4917 231.322 38.1485 224.845 37.7049 217.451L27.7228 218.049C28.2792 227.322 31.2693 235.678 36.7016 242.984L44.7262 237.016ZM32.7139 222.75H56.2139V212.75H32.7139V222.75ZM51.2375 218.235C52.0447 226.509 55.9564 233.333 62.6766 238.472L68.7511 230.528C64.138 227.001 61.7164 222.657 61.1902 217.264L51.2375 218.235ZM62.7322 238.514C69.6452 243.649 78.3634 246 88.4639 246V236C79.8976 236 73.4492 234.018 68.6955 230.486L62.7322 238.514ZM88.4639 246C97.8237 246 105.858 243.932 112.006 239.218L105.922 231.282C102.07 234.235 96.4374 236 88.4639 236V246ZM112.006 239.218C118.126 234.526 121.464 228.277 121.464 220.75H111.464C111.464 224.89 109.802 228.307 105.922 231.282L112.006 239.218ZM121.464 220.75C121.464 216.99 120.621 213.461 118.744 210.353C116.869 207.247 114.137 204.852 110.81 203.084L106.118 211.916C108.124 212.981 109.392 214.211 110.184 215.522C110.974 216.831 111.464 218.51 111.464 220.75H121.464ZM110.915 203.142C104.996 199.813 96.232 196.768 84.9436 193.904L82.4842 203.596C93.5291 206.399 101.265 209.187 106.013 211.858L110.915 203.142ZM84.9824 193.914C74.9361 191.278 66.8332 188.677 60.6117 186.124L56.8161 195.376C63.5945 198.157 72.1583 200.888 82.4453 203.586L84.9824 193.914ZM60.7557 186.186C55.0955 183.654 50.1787 180.01 45.9768 175.207L38.451 181.793C43.5824 187.657 49.6656 192.18 56.672 195.314L60.7557 186.186ZM46.0837 175.334C42.4784 170.927 40.4639 164.968 40.4639 157H30.4639C30.4639 166.699 32.9493 175.073 38.3441 181.666L46.0837 175.334ZM40.4639 157C40.4639 151.069 42.206 145.663 45.7825 140.656L37.6452 134.844C32.8884 141.503 30.4639 148.931 30.4639 157H40.4639ZM45.7825 140.656C49.3403 135.675 54.4819 131.618 61.4575 128.585L57.4702 119.415C49.1125 123.048 42.4207 128.158 37.6452 134.844L45.7825 140.656ZM61.5403 128.548C68.4553 125.392 76.4785 123.75 85.7139 123.75V113.75C75.2826 113.75 65.8057 115.608 57.3874 119.452L61.5403 128.548ZM85.7139 123.75C100.026 123.75 111.061 127.354 119.29 134.114L125.638 126.386C115.2 117.813 101.735 113.75 85.7139 113.75V123.75ZM119.29 134.114C127.413 140.786 131.866 149.909 132.47 162L142.458 161.5C141.729 146.925 136.181 135.047 125.638 126.386L119.29 134.114ZM137.464 156.75H114.714V166.75H137.464V156.75ZM119.702 161.402C119.11 152.925 115.578 145.869 109.117 140.619L102.811 148.381C107.016 151.797 109.317 156.241 109.726 162.098L119.702 161.402ZM109.177 140.669C102.863 135.373 94.6032 133 84.9639 133V143C92.9912 143 98.7318 144.96 102.751 148.331L109.177 140.669ZM84.9639 133C76.1243 133 68.4813 134.892 62.5313 139.2L68.3964 147.3C72.1131 144.608 77.4701 143 84.9639 143V133ZM62.5313 139.2C56.4805 143.582 53.2139 149.632 53.2139 157H63.2139C63.2139 153.034 64.7806 149.918 68.3964 147.3L62.5313 139.2ZM53.2139 157C53.2139 162.65 55.0359 167.667 58.8288 171.683L66.0989 164.817C64.2251 162.833 63.2139 160.349 63.2139 157H53.2139ZM59.0308 171.885C62.5202 175.181 66.7096 177.822 71.5157 179.855L75.4121 170.645C71.5515 169.012 68.4075 166.986 65.897 164.615L59.0308 171.885ZM71.7273 179.939C76.4195 181.677 82.7406 183.637 90.6309 185.819L93.2968 176.181C85.5204 174.03 79.5082 172.157 75.2004 170.561L71.7273 179.939ZM90.6552 185.826C100.363 188.458 108.113 191.053 113.979 193.589L117.948 184.411C111.481 181.614 103.232 178.875 93.2725 176.174L90.6552 185.826ZM114.085 193.634C119.484 195.823 124.067 199.164 127.883 203.713L135.545 197.287C130.694 191.503 124.777 187.177 117.842 184.366L114.085 193.634ZM127.943 203.784C131.516 207.886 133.566 213.426 133.715 220.85L143.713 220.65C143.528 211.408 140.912 203.447 135.484 197.216L127.943 203.784ZM133.714 220.75C133.714 227.26 131.926 233.009 128.357 238.148L136.571 243.852C141.335 236.991 143.714 229.24 143.714 220.75H133.714ZM128.357 238.148C124.777 243.303 119.615 247.516 112.637 250.702L116.79 259.798C125.146 255.984 131.817 250.697 136.571 243.852L128.357 238.148ZM112.683 250.681C105.936 253.68 97.9838 255.25 88.7139 255.25V265.25C99.1106 265.25 108.492 263.487 116.745 259.819L112.683 250.681ZM273.829 219.25L278.532 217.551L277.339 214.25H273.829V219.25ZM197.829 219.25V214.25H194.319L193.127 217.551L197.829 219.25ZM183.829 258V263H187.339L188.532 259.699L183.829 258ZM159.829 258L155.13 256.291L152.691 263H159.829V258ZM222.829 84.75V79.75H219.327L218.13 83.0413L222.829 84.75ZM249.079 84.75L253.78 83.0473L252.586 79.75H249.079V84.75ZM311.829 258V263H318.958L316.53 256.297L311.829 258ZM287.829 258L283.127 259.699L284.319 263H287.829V258ZM267.329 200.75V205.75H274.43L272.037 199.065L267.329 200.75ZM235.829 112.75L240.537 111.065L235.829 97.9138L231.122 111.065L235.829 112.75ZM204.329 200.75L199.622 199.065L197.229 205.75H204.329V200.75ZM273.829 214.25H197.829V224.25H273.829V214.25ZM193.127 217.551L179.127 256.301L188.532 259.699L202.532 220.949L193.127 217.551ZM183.829 253H159.829V263H183.829V253ZM164.528 259.709L227.528 86.4587L218.13 83.0413L155.13 256.291L164.528 259.709ZM222.829 89.75H249.079V79.75H222.829V89.75ZM244.378 86.4527L307.128 259.703L316.53 256.297L253.78 83.0473L244.378 86.4527ZM311.829 253H287.829V263H311.829V253ZM292.532 256.301L278.532 217.551L269.127 220.949L283.127 259.699L292.532 256.301ZM272.037 199.065L240.537 111.065L231.122 114.435L262.622 202.435L272.037 199.065ZM231.122 111.065L199.622 199.065L209.037 202.435L240.537 114.435L231.122 111.065ZM204.329 205.75H267.329V195.75H204.329V205.75Z" fill="black" mask="url(#path-2-outside-1_1_3)"/>
</g>
<defs>
<clipPath id="clip0_1_3">
<rect width="341" height="341" rx="50" fill="white"/>
</clipPath>
</defs>
</svg>
